<svg width="111" height="111" viewBox="0 0 111 111" fill="none" xmlns="http://www.w3.org/2000/svg">
<g clip-path="url(#clip0_90_450)">
<path d="M73.08 54.2C68.31 53.49 65.93 47.95 68.78 44.06C69.43 43.18 69.89 42.69 69.89 42.69L84.17 28.41L82.58 26.82L68.3 41.1C68.3 41.1 67.85 41.52 67.05 42.12C63.1 45.06 57.37 42.68 56.8 37.79C56.68 36.77 56.62 35.7 56.62 34.55V0H54.37V34.56C54.37 35.69 54.31 36.75 54.19 37.75C53.62 42.7 47.76 45.13 43.86 42.03C43.07 41.4 42.28 40.7 41.48 39.9L28.4 26.82L26.81 28.41L39.89 41.49C40.7 42.3 41.42 43.11 42.05 43.91C45.11 47.77 42.74 53.5 37.86 54.22C36.86 54.37 36.25 54.38 36.25 54.38H0V56.63H36.26C36.26 56.63 36.89 56.65 37.92 56.8C42.69 57.51 45.07 63.05 42.22 66.94C41.57 67.82 41.11 68.31 41.11 68.31L26.83 82.59L28.42 84.18L42.7 69.9C42.7 69.9 43.14 69.48 43.95 68.88C47.9 65.94 53.63 68.32 54.2 73.21C54.32 74.23 54.38 75.3 54.38 76.45V111.01H56.63V76.45C56.63 75.32 56.69 74.26 56.81 73.26C57.38 68.31 63.24 65.88 67.14 68.98C67.93 69.61 68.72 70.32 69.52 71.11L82.6 84.19L84.19 82.6L71.11 69.52C70.3 68.71 69.58 67.9 68.95 67.1C65.89 63.24 68.26 57.51 73.14 56.79C74.14 56.64 74.75 56.63 74.75 56.63H111.01V54.38H74.75C74.75 54.38 74.12 54.36 73.09 54.21L73.08 54.2Z" fill="#7094DC"/>
</g>
<defs>
<clipPath id="clip0_90_450">
<rect width="111" height="111" fill="white"/>
</clipPath>
</defs>
</svg>
